<?xml version="1.0" standalone="no"?>
<!DOCTYPE svg PUBLIC "-//W3C//DTD SVG 20010904//EN"
 "http://www.w3.org/TR/2001/REC-SVG-20010904/DTD/svg10.dtd">
<svg version="1.0" xmlns="http://www.w3.org/2000/svg"
 width="700.000000pt" height="700.000000pt" viewBox="0 0 700.000000 700.000000"
 preserveAspectRatio="xMidYMid meet">
<metadata>
Created by potrace 1.14, written by Peter Selinger 2001-2017
</metadata>
<g transform="translate(0.000000,700.000000) scale(0.100000,-0.100000)"
fill="#000000" stroke="none">
<path d="M879 6998 c-1 -2 -2 -1577 -3 -3500 l-1 -3498 547 0 548 0 0 3500 0
3500 -545 0 c-300 0 -546 -1 -546 -2z"/>
<path d="M2627 6993 c-3 -7 -2 -1070 2 -1083 1 -4 3400 -5 3476 -1 20 1 20 8
20 546 l0 545 -1747 0 c-961 0 -1749 -3 -1751 -7z"/>
<path d="M2626 4071 c-2 -6 0 -1084 3 -1107 1 -8 484 -11 1748 -10 l1748 1 0
560 0 560 -1748 1 c-961 0 -1749 -2 -1751 -5z"/>
</g>
</svg>
